# xmcd
#
# Track frame offsets:
# 150
# 25670
# 46940
# 69418
# 92270
# 109505
# 141283
# 153318
# 173718
# 192778
# 211320
# 228813
# 248070
# 271950
#
# Disc length: 4006 seconds
#
#
# Revision: 0
# Processed by: cddbd v1.4PL0 Copyright (c) Steve Scherf et al.
# Submitted via: FreeRIP 2.11 
#
DISCID=a90fa40e
DTITLE=Gutter Brothers - Already Dead
DYEAR=1993
DGENRE=
TTITLE0=Runaway Train
TTITLE1=Butterfly Brains
TTITLE2=Scared Of Boys
TTITLE3=The Darker Side Of Men
TTITLE4=Summer In The City
TTITLE5=Don't Know Why
TTITLE6=Bubblin' Under, Boilin' Over
TTITLE7=Queenie, The Queen Of Cardboard City
TTITLE8=Can't Sing Those Love Songs Anymore
TTITLE9=Where Do They Keep The Water?
TTITLE10=Mr. Nasty
TTITLE11=Already Dead
TTITLE12=Stand Up Little Jesus
TTITLE13=I Ain't Afraid
EXTD=
EXTT0=
EXTT1=
EXTT2=
EXTT3=
EXTT4=
EXTT5=
EXTT6=
EXTT7=
EXTT8=
EXTT9=
EXTT10=
EXTT11=
EXTT12=
EXTT13=
PLAYORDER=
